REM DIRINDEX 1\2\4,1\2\5,1\2\6,1\3\7,1\3\8,1\3\9,1\3\10
REM DIRNAME folder01,folder02,folder03,folder04,folder05,folder06,folder07,folder08,folder09,folder10
TITLE ""
FILE "b_145.mp3" MP3
  TRACK 01 AUDIO
    TITLE "0:"
    INDEX 01 00:00:00
  TRACK 02 AUDIO
    TITLE "7:cjc057_08800"
    INDEX 01 00:00:13
  TRACK 03 AUDIO
    TITLE "0:"
    INDEX 01 00:01:52
  TRACK 04 AUDIO
    TITLE "8:cjc057_08801"
    INDEX 01 00:02:04
  TRACK 05 AUDIO
    TITLE "0:"
    INDEX 01 00:04:48
  TRACK 06 AUDIO
    TITLE "9:cjc057_08802"
    INDEX 01 00:05:14
  TRACK 07 AUDIO
    TITLE "0:"
    INDEX 01 00:09:22
  TRACK 08 AUDIO
    TITLE "7:cjc057_08803"
    INDEX 01 00:10:23
  TRACK 09 AUDIO
    TITLE "0:"
    INDEX 01 00:11:37
  TRACK 10 AUDIO
    TITLE "8:cjc057_08804"
    INDEX 01 00:11:64
  TRACK 11 AUDIO
    TITLE "0:"
    INDEX 01 00:14:31
  TRACK 12 AUDIO
    TITLE "9:cjc057_08805"
    INDEX 01 00:14:70
  TRACK 13 AUDIO
    TITLE "0:"
    INDEX 01 00:18:42
  TRACK 14 AUDIO
    TITLE "7:cjc057_08806"
    INDEX 01 00:19:44
  TRACK 15 AUDIO
    TITLE "0:"
    INDEX 01 00:21:04
  TRACK 16 AUDIO
    TITLE "8:cjc057_08807"
    INDEX 01 00:21:29
  TRACK 17 AUDIO
    TITLE "0:"
    INDEX 01 00:24:18
  TRACK 18 AUDIO
    TITLE "9:cjc057_08808"
    INDEX 01 00:24:59
  TRACK 19 AUDIO
    TITLE "0:"
    INDEX 01 00:27:63
  TRACK 20 AUDIO
    TITLE "7:cjc057_08809"
    INDEX 01 00:28:60
  TRACK 21 AUDIO
    TITLE "0:"
    INDEX 01 00:30:18
  TRACK 22 AUDIO
    TITLE "8:cjc057_08810"
    INDEX 01 00:30:44
  TRACK 23 AUDIO
    TITLE "0:"
    INDEX 01 00:32:37
  TRACK 24 AUDIO
    TITLE "9:cjc057_08811"
    INDEX 01 00:32:74
  TRACK 25 AUDIO
    TITLE "0:"
    INDEX 01 00:35:39
  TRACK 26 AUDIO
    TITLE "7:cjc057_08812"
    INDEX 01 00:36:40
  TRACK 27 AUDIO
    TITLE "0:"
    INDEX 01 00:37:73
  TRACK 28 AUDIO
    TITLE "8:cjc057_08813"
    INDEX 01 00:38:26
  TRACK 29 AUDIO
    TITLE "0:"
    INDEX 01 00:41:34
  TRACK 30 AUDIO
    TITLE "9:cjc057_08814"
    INDEX 01 00:42:00
  TRACK 31 AUDIO
    TITLE "0:"
    INDEX 01 00:46:66
  TRACK 32 AUDIO
    TITLE "7:cjc057_08815"
    INDEX 01 00:47:68
  TRACK 33 AUDIO
    TITLE "0:"
    INDEX 01 00:49:12
  TRACK 34 AUDIO
    TITLE "8:cjc057_08816"
    INDEX 01 00:49:39
  TRACK 35 AUDIO
    TITLE "0:"
    INDEX 01 00:52:30
  TRACK 36 AUDIO
    TITLE "9:cjc057_08817"
    INDEX 01 00:52:67
  TRACK 37 AUDIO
    TITLE "0:"
    INDEX 01 00:55:40
  TRACK 38 AUDIO
    TITLE "7:cjc057_08818"
    INDEX 01 00:56:37
  TRACK 39 AUDIO
    TITLE "0:"
    INDEX 01 00:57:60
  TRACK 40 AUDIO
    TITLE "8:cjc057_08819"
    INDEX 01 00:58:15
  TRACK 41 AUDIO
    TITLE "0:"
    INDEX 01 01:00:59
  TRACK 42 AUDIO
    TITLE "9:cjc057_08820"
    INDEX 01 01:01:21
  TRACK 43 AUDIO
    TITLE "0:"
    INDEX 01 01:04:27
  TRACK 44 AUDIO
    TITLE "7:cjc057_08821"
    INDEX 01 01:05:30
  TRACK 45 AUDIO
    TITLE "0:"
    INDEX 01 01:06:51
  TRACK 46 AUDIO
    TITLE "8:cjc057_08822"
    INDEX 01 01:07:06
  TRACK 47 AUDIO
    TITLE "0:"
    INDEX 01 01:10:00
  TRACK 48 AUDIO
    TITLE "9:cjc057_08823"
    INDEX 01 01:10:37
  TRACK 49 AUDIO
    TITLE "0:"
    INDEX 01 01:14:12
  TRACK 50 AUDIO
    TITLE "7:cjc057_08824"
    INDEX 01 01:15:13
  TRACK 51 AUDIO
    TITLE "0:"
    INDEX 01 01:16:34
  TRACK 52 AUDIO
    TITLE "8:cjc057_08825"
    INDEX 01 01:16:61
  TRACK 53 AUDIO
    TITLE "0:"
    INDEX 01 01:18:39
  TRACK 54 AUDIO
    TITLE "9:cjc057_08826"
    INDEX 01 01:19:05
  TRACK 55 AUDIO
    TITLE "0:"
    INDEX 01 01:23:20
  TRACK 56 AUDIO
    TITLE "7:cjc057_08827"
    INDEX 01 01:24:22
  TRACK 57 AUDIO
    TITLE "0:"
    INDEX 01 01:25:45
  TRACK 58 AUDIO
    TITLE "8:cjc057_08828"
    INDEX 01 01:25:72
  TRACK 59 AUDIO
    TITLE "0:"
    INDEX 01 01:28:63
  TRACK 60 AUDIO
    TITLE "9:cjc057_08829"
    INDEX 01 01:29:29
  TRACK 61 AUDIO
    TITLE "0:"
    INDEX 01 01:33:52
  TRACK 62 AUDIO
    TITLE "7:cjc057_08830"
    INDEX 01 01:34:55
  TRACK 63 AUDIO
    TITLE "0:"
    INDEX 01 01:36:19
  TRACK 64 AUDIO
    TITLE "8:cjc057_08831"
    INDEX 01 01:36:43
  TRACK 65 AUDIO
    TITLE "0:"
    INDEX 01 01:39:17
  TRACK 66 AUDIO
    TITLE "9:cjc057_08832"
    INDEX 01 01:39:59
  TRACK 67 AUDIO
    TITLE "0:"
    INDEX 01 01:42:33
  TRACK 68 AUDIO
    TITLE "7:cjc057_08833"
    INDEX 01 01:43:37
  TRACK 69 AUDIO
    TITLE "0:"
    INDEX 01 01:44:66
  TRACK 70 AUDIO
    TITLE "8:cjc057_08834"
    INDEX 01 01:45:18
  TRACK 71 AUDIO
    TITLE "0:"
    INDEX 01 01:47:72
  TRACK 72 AUDIO
    TITLE "9:cjc057_08835"
    INDEX 01 01:48:38
  TRACK 73 AUDIO
    TITLE "0:"
    INDEX 01 01:51:66
  TRACK 74 AUDIO
    TITLE "7:cjc057_08836"
    INDEX 01 01:52:67
  TRACK 75 AUDIO
    TITLE "0:"
    INDEX 01 01:54:15
  TRACK 76 AUDIO
    TITLE "8:cjc057_08837"
    INDEX 01 01:54:44
  TRACK 77 AUDIO
    TITLE "0:"
    INDEX 01 01:58:52
  TRACK 78 AUDIO
    TITLE "9:cjc057_08838"
    INDEX 01 01:59:10
  TRACK 79 AUDIO
    TITLE "0:"
    INDEX 01 02:02:17
  TRACK 80 AUDIO
    TITLE "7:cjc057_08839"
    INDEX 01 02:03:18
  TRACK 81 AUDIO
    TITLE "0:"
    INDEX 01 02:04:45
  TRACK 82 AUDIO
    TITLE "8:cjc057_08840"
    INDEX 01 02:04:72
  TRACK 83 AUDIO
    TITLE "0:"
    INDEX 01 02:06:42
  TRACK 84 AUDIO
    TITLE "9:cjc057_08841"
    INDEX 01 02:07:06
  TRACK 85 AUDIO
    TITLE "0:"
    INDEX 01 02:11:45
